# Blender v2.93.5 OBJ File: 'small fighter 2.blend'
# www.blender.org
mtllib small fighter 2.mtl
o Cube
v 0.459645 0.716063 -1.000000
v 0.459645 1.346442 3.003197
v 3.992999 -0.004564 -2.985672
v 1.504243 0.500000 2.399700
v 1.252121 0.750000 5.114244
v 1.504243 0.500000 5.114244
v 2.951495 0.250000 4.982722
v 1.475747 0.250000 4.982722
v -0.459645 0.716063 -1.000000
v -0.459645 1.346442 3.003197
v -3.992999 -0.004564 -2.985672
v 0.000000 1.346442 3.003197
v -1.504243 0.500000 2.399700
v 0.000000 0.716063 -1.000000
v 0.000000 0.175383 -3.502319
v -1.252121 0.750000 5.114244
v -1.504243 0.500000 5.114244
v -2.951495 0.250000 4.982722
v 0.000000 0.750000 5.114244
v 0.000000 0.500000 5.114244
v 0.000000 0.250000 4.982722
v -1.475747 0.250000 4.982722
v 0.459645 -0.716063 -1.000000
v 0.459645 -1.346442 3.003197
v 3.992999 0.004564 -2.985672
v 3.992999 0.000000 3.557834
v 1.504243 -0.500000 2.399700
v 1.252121 -0.750000 5.114244
v 1.504243 -0.500000 5.114244
v 2.951495 -0.250000 4.982722
v 1.475747 -0.250000 4.982722
v 1.473033 0.000000 5.137802
v -0.459645 -0.716063 -1.000000
v -0.459645 -1.346442 3.003197
v -3.992999 0.004564 -2.985672
v -3.992999 0.000000 3.557834
v 0.000000 -1.346442 3.003197
v -1.504243 -0.500000 2.399700
v 0.000000 -0.716063 -1.000000
v 0.000000 0.000000 -4.992502
v 0.000000 -0.175383 -3.502319
v 0.000000 0.000000 5.137802
v -1.252121 -0.750000 5.114244
v -1.504243 -0.500000 5.114244
v -2.951495 -0.250000 4.982722
v 0.000000 -0.750000 5.114244
v 0.000000 -0.500000 5.114244
v 0.000000 -0.250000 4.982722
v -1.475747 -0.250000 4.982722
v -1.473033 0.000000 5.137802
vt 0.012024 0.858372
vt 0.000062 0.623714
vt 0.042381 0.623780
vt 0.172839 0.332151
vt 0.019337 0.254683
vt 0.060001 0.261842
vt 0.164969 0.117674
vt 0.076998 0.061276
vt 0.193603 0.115129
vt 0.390223 0.818400
vt 0.224884 0.075925
vt 0.207325 0.095420
vt 0.104978 0.020984
vt 0.120129 0.000062
vt 0.090605 0.041015
vt 0.272975 0.165182
vt 0.390223 0.214251
vt 0.009603 0.999938
vt 0.172839 0.332151
vt 0.042381 0.623780
vt 0.060001 0.261842
vt 0.164969 0.117674
vt 0.193603 0.115129
vt 0.390223 0.818400
vt 0.224884 0.075925
vt 0.207325 0.095420
vt 0.272975 0.165182
vt 0.390223 0.214251
vt 0.012024 0.858372
vt 0.172839 0.332151
vt 0.042381 0.623780
vt 0.000062 0.623714
vt 0.019337 0.254683
vt 0.060001 0.261842
vt 0.164969 0.117674
vt 0.076998 0.061276
vt 0.193603 0.115129
vt 0.390223 0.818400
vt 0.104978 0.020984
vt 0.207325 0.095420
vt 0.090605 0.041015
vt 0.272975 0.165182
vt 0.042381 0.623780
vt 0.172839 0.332151
vt 0.060001 0.261842
vt 0.164969 0.117674
vt 0.193603 0.115129
vt 0.390223 0.818400
vt 0.207325 0.095420
vt 0.272975 0.165182
vn 0.7065 0.6538 -0.2710
vn 0.0000 0.9878 -0.1556
vn 0.0000 0.9623 0.2719
vn 0.6098 0.7891 -0.0738
vn 0.0538 0.9962 -0.0685
vn 0.0000 0.5271 0.8498
vn 0.0000 -0.4656 0.8850
vn 0.0000 0.0000 1.0000
vn 0.1702 0.9854 0.0000
vn 0.1993 0.9799 -0.0053
vn 0.1951 -0.8477 0.4934
vn 0.0598 0.9914 -0.1167
vn -0.7065 0.6538 -0.2710
vn -0.6098 0.7891 -0.0738
vn -0.0538 0.9962 -0.0685
vn -0.1702 0.9854 0.0000
vn -0.1993 0.9799 -0.0053
vn -0.1951 -0.8477 0.4934
vn -0.0598 0.9914 -0.1167
vn 0.7065 -0.6538 -0.2710
vn 0.0000 -0.9878 -0.1556
vn 0.0000 -0.9623 0.2719
vn 0.6098 -0.7891 -0.0738
vn 0.0538 -0.9962 -0.0685
vn 0.0000 -0.5271 0.8498
vn 0.0000 0.4656 0.8850
vn 0.1702 -0.9854 0.0000
vn 0.1993 -0.9799 -0.0053
vn 0.1951 0.8477 0.4934
vn 0.0598 -0.9914 -0.1167
vn -0.7065 -0.6538 -0.2710
vn -0.6098 -0.7891 -0.0738
vn -0.0538 -0.9962 -0.0685
vn -0.1702 -0.9854 0.0000
vn -0.1993 -0.9799 -0.0053
vn -0.1951 0.8477 0.4934
vn -0.0598 -0.9914 -0.1167
usemtl Materials off
f 15/1/1 14/2/1 1/3/1 4/4/1
f 12/5/2 2/6/2 1/3/2 14/2/2
f 5/7/3 2/6/3 12/5/3 19/8/3
f 4/4/4 1/3/4 2/6/4 5/7/4 6/9/4
f 15/1/5 4/4/5 3/10/5
f 32/11/6 8/12/6 21/13/6 42/14/6
f 6/9/7 20/15/7 21/13/7 8/12/7
f 6/9/8 5/7/8 19/8/8 20/15/8
f 4/4/9 6/9/9 7/16/9
f 3/10/10 4/4/10 7/16/10 26/17/10
f 7/16/7 6/9/7 8/12/7
f 26/17/11 7/16/11 8/12/11 32/11/11
f 40/18/12 15/1/12 3/10/12
f 15/1/13 13/19/13 9/20/13 14/2/13
f 12/5/2 14/2/2 9/20/2 10/21/2
f 16/22/3 19/8/3 12/5/3 10/21/3
f 13/19/14 17/23/14 16/22/14 10/21/14 9/20/14
f 15/1/15 11/24/15 13/19/15
f 50/25/6 42/14/6 21/13/6 22/26/6
f 17/23/7 22/26/7 21/13/7 20/15/7
f 17/23/8 20/15/8 19/8/8 16/22/8
f 13/19/16 18/27/16 17/23/16
f 11/24/17 36/28/17 18/27/17 13/19/17
f 18/27/7 22/26/7 17/23/7
f 36/28/18 50/25/18 22/26/18 18/27/18
f 40/18/19 11/24/19 15/1/19
f 41/29/20 27/30/20 23/31/20 39/32/20
f 37/33/21 39/32/21 23/31/21 24/34/21
f 28/35/22 46/36/22 37/33/22 24/34/22
f 27/30/23 29/37/23 28/35/23 24/34/23 23/31/23
f 41/29/24 25/38/24 27/30/24
f 32/11/25 42/14/25 48/39/25 31/40/25
f 29/37/26 31/40/26 48/39/26 47/41/26
f 29/37/8 47/41/8 46/36/8 28/35/8
f 27/30/27 30/42/27 29/37/27
f 25/38/28 26/17/28 30/42/28 27/30/28
f 30/42/26 31/40/26 29/37/26
f 26/17/29 32/11/29 31/40/29 30/42/29
f 40/18/30 25/38/30 41/29/30
f 41/29/31 39/32/31 33/43/31 38/44/31
f 37/33/21 34/45/21 33/43/21 39/32/21
f 43/46/22 34/45/22 37/33/22 46/36/22
f 38/44/32 33/43/32 34/45/32 43/46/32 44/47/32
f 41/29/33 38/44/33 35/48/33
f 50/25/25 49/49/25 48/39/25 42/14/25
f 44/47/26 47/41/26 48/39/26 49/49/26
f 44/47/8 43/46/8 46/36/8 47/41/8
f 38/44/34 44/47/34 45/50/34
f 35/48/35 38/44/35 45/50/35 36/28/35
f 45/50/26 44/47/26 49/49/26
f 36/28/36 45/50/36 49/49/36 50/25/36
f 40/18/37 41/29/37 35/48/37
l 40 42
